# xmcd
#
# Track frame offsets: 
#        150
#        15302
#        30440
#        53807
#        67632
#        82960
#        106582
#        144207
#        163427
#        179320
#        197490
#        222334
#        239382
#        254217
#        278355
#        304792
#
# Disc length: 4297 seconds
#
# Revision: 2
# Processed by: cddbd v1.5.2PL0 Copyright (c) Steve Scherf et al.
# Submitted via: ExactAudioCopy v1.0b3
#
DISCID=ca10c710
DTITLE=Big Daddy G - Topless
DYEAR=2000
DGENRE=Blues
TTITLE0=New Man Blues
TTITLE1=What You're All About
TTITLE2=Stringbean 'n Tater
TTITLE3=Topless
TTITLE4=Chicken and The Hawk
TTITLE5=Paycheck
TTITLE6=Nothing Left to Lose
TTITLE7=You're Cute
TTITLE8=Keep Your Head Up
TTITLE9=Checkbook Game
TTITLE10=Blues For T.f.
TTITLE11=Looks Good
TTITLE12=Say, Reg!
TTITLE13=The Past is Still Here
TTITLE14=Spud's Groove
TTITLE15=Let me Ride Your Automobile
EXTD=
EXTT0=
EXTT1=
EXTT2=
EXTT3=
EXTT4=
EXTT5=
EXTT6=
EXTT7=
EXTT8=
EXTT9=
EXTT10=
EXTT11=
EXTT12=
EXTT13=
EXTT14=
EXTT15=
PLAYORDER=
